# xmcd
# 
# Track frame offsets:
#     150
#     15910
#     30579
#     51333
#     64932
#     87650
#     103737
#     117437
#     137081
#     153902
#     169754
# 
# Disc length: 2525
# 
# Revision: 0
# Processed by: cddbd v1.5.2PL0 Copyright (c) Steve Scherf et al.
# Submitted via: fre:ac v1.0.31
# 
DISCID=8f09db0b
DTITLE=Drinkin' Hoppys - I ain't drunk, I'm just Drinkin'
DYEAR=2018
DGENRE=Jazz
TTITLE0=やってきた厄年
TTITLE1=お達者で(This Is It)
TTITLE2=行け！ゆとり世代
TTITLE3=名古屋はミソ(No Hay Como Mi Son)
TTITLE4=パパが泣いた木
TTITLE5=誰もが禁煙者だ(The 'G' Man Got The 'T' Man)
TTITLE6=I'm Beginning To See The Light
TTITLE7=知ってるかい？女子会
TTITLE8=Wedding Jump
TTITLE9=Mama Look A Booboo
TTITLE10=Lawdy-Clawdy
EXTD=
EXTT0=
EXTT1=
EXTT2=
EXTT3=
EXTT4=
EXTT5=
EXTT6=
EXTT7=
EXTT8=
EXTT9=
EXTT10=
PLAYORDER=
